<svg xmlns="http://www.w3.org/2000/svg" viewBox="0 0 800 600" style="background: transparent;">
  <!-- Definitions for gradients, filters and patterns -->
  <defs>
    <!-- Glass effect filter -->
    <filter id="glass" x="-50%" y="-50%" width="200%" height="200%">
      <feGaussianBlur in="SourceGraphic" stdDeviation="5" result="blur" />
      <feColorMatrix in="blur" type="matrix" values="1 0 0 0 0  0 1 0 0 0  0 0 1 0 0  0 0 0 18 -7" result="glass" />
      <feComposite in="SourceGraphic" in2="glass" operator="atop" />
    </filter>
    
    <!-- Glow effect -->
    <filter id="glow" x="-20%" y="-20%" width="140%" height="140%">
      <feGaussianBlur stdDeviation="8" result="blur" />
      <feComposite in="SourceGraphic" in2="blur" operator="over" />
    </filter>
    
    <!-- 3D shadow effect -->
    <filter id="shadow" x="-20%" y="-20%" width="140%" height="140%">
      <feOffset dx="5" dy="5" result="offset" />
      <feGaussianBlur in="offset" stdDeviation="5" result="blur" />
      <feColorMatrix in="blur" type="matrix" values="0 0 0 0 0 0 0 0 0 0 0 0 0 0 0 0 0 0 0.3 0" result="shadow" />
      <feComposite in="SourceGraphic" in2="shadow" operator="over" />
    </filter>
    
    <!-- Holographic gradient -->
    <linearGradient id="holoGradient" x1="0%" y1="0%" x2="100%" y2="100%">
      <stop offset="0%" stop-color="#4361ee" stop-opacity="0.7">
        <animate attributeName="stop-color" values="#4361ee;#4cc9f0;#3a0ca3;#4361ee" dur="10s" repeatCount="indefinite" />
      </stop>
      <stop offset="100%" stop-color="#4cc9f0" stop-opacity="0.7">
        <animate attributeName="stop-color" values="#4cc9f0;#3a0ca3;#4361ee;#4cc9f0" dur="10s" repeatCount="indefinite" />
      </stop>
    </linearGradient>
    
    <!-- Data flow gradient -->
    <linearGradient id="dataFlowGradient" x1="0%" y1="0%" x2="100%" y2="0%">
      <stop offset="0%" stop-color="#4361ee" stop-opacity="0.1" />
      <stop offset="50%" stop-color="#4cc9f0" stop-opacity="0.8" />
      <stop offset="100%" stop-color="#4361ee" stop-opacity="0.1" />
      <animate attributeName="x1" values="0%;100%;0%" dur="3s" repeatCount="indefinite" />
      <animate attributeName="x2" values="100%;200%;100%" dur="3s" repeatCount="indefinite" />
    </linearGradient>
    
    <!-- 3D cube pattern -->
    <pattern id="cubePattern" x="0" y="0" width="60" height="60" patternUnits="userSpaceOnUse">
      <path d="M30,10 L50,20 L50,40 L30,50 L10,40 L10,20 Z" fill="none" stroke="#4361ee" stroke-width="1" stroke-opacity="0.3" />
      <path d="M30,10 L30,30 L50,40 L50,20 Z" fill="#4361ee" fill-opacity="0.1" stroke="#4361ee" stroke-width="1" stroke-opacity="0.3" />
      <path d="M30,10 L10,20 L10,40 L30,30 Z" fill="#4cc9f0" fill-opacity="0.1" stroke="#4cc9f0" stroke-width="1" stroke-opacity="0.3" />
    </pattern>
  </defs>
  
  <!-- 3D Isometric Grid Base -->
  <g transform="translate(400, 300)">
    <!-- Isometric grid -->
    <g transform="scale(1.2) rotate(45) skewX(-30)">
      <rect x="-150" y="-150" width="300" height="300" fill="url(#cubePattern)" opacity="0.3" />
    </g>
    
    <!-- 3D Platform -->
    <g transform="translate(0, 50) rotate(-10)">
      <!-- Platform base -->
      <path d="M-200,-50 L200,-50 L150,50 L-150,50 Z" fill="url(#holoGradient)" opacity="0.3" filter="url(#glass)" />
      
      <!-- Platform grid lines -->
      <g opacity="0.5">
        <line x1="-200" y1="-50" x2="200" y2="-50" stroke="#4361ee" stroke-width="1" />
        <line x1="200" y1="-50" x2="150" y2="50" stroke="#4361ee" stroke-width="1" />
        <line x1="150" y1="50" x2="-150" y2="50" stroke="#4361ee" stroke-width="1" />
        <line x1="-150" y1="50" x2="-200" y2="-50" stroke="#4361ee" stroke-width="1" />
        
        <!-- Grid lines -->
        <line x1="-150" y1="-30" x2="150" y2="-30" stroke="#4361ee" stroke-width="0.5" stroke-dasharray="5,5" />
        <line x1="-100" y1="-10" x2="100" y2="-10" stroke="#4361ee" stroke-width="0.5" stroke-dasharray="5,5" />
        <line x1="-50" y1="10" x2="50" y2="10" stroke="#4361ee" stroke-width="0.5" stroke-dasharray="5,5" />
        <line x1="0" y1="30" x2="0" y2="-50" stroke="#4361ee" stroke-width="0.5" stroke-dasharray="5,5" />
      </g>
    </g>
    
    <!-- 3D Data Visualization Elements -->
    <g transform="translate(0, 20) rotate(-10)">
      <!-- 3D Bar Chart -->
      <g transform="translate(-120, -20) scale(0.8)">
        <!-- 3D Bars -->
        <g transform="skewY(-20)">
          <!-- Bar 1 -->
          <g transform="translate(0, 0)">
            <rect x="-15" y="-60" width="30" height="60" fill="#4361ee" opacity="0.7" rx="2">
              <animate attributeName="height" values="60;80;60" dur="3s" repeatCount="indefinite" />
              <animate attributeName="y" values="-60;-80;-60" dur="3s" repeatCount="indefinite" />
            </rect>
            <rect x="-15" y="0" width="30" height="5" fill="#4361ee" opacity="0.9" rx="2" />
            <path d="M-15,-60 L-15,0 L15,0 L15,-60 Z" fill="none" stroke="#ffffff" stroke-width="1" stroke-opacity="0.5" />
          </g>
          
          <!-- Bar 2 -->
          <g transform="translate(40, 0)">
            <rect x="-15" y="-90" width="30" height="90" fill="#4cc9f0" opacity="0.7" rx="2">
              <animate attributeName="height" values="90;110;90" dur="4s" repeatCount="indefinite" />
              <animate attributeName="y" values="-90;-110;-90" dur="4s" repeatCount="indefinite" />
            </rect>
            <rect x="-15" y="0" width="30" height="5" fill="#4cc9f0" opacity="0.9" rx="2" />
            <path d="M-15,-90 L-15,0 L15,0 L15,-90 Z" fill="none" stroke="#ffffff" stroke-width="1" stroke-opacity="0.5" />
          </g>
          
          <!-- Bar 3 -->
          <g transform="translate(80, 0)">
            <rect x="-15" y="-70" width="30" height="70" fill="#3a0ca3" opacity="0.7" rx="2">
              <animate attributeName="height" values="70;90;70" dur="3.5s" repeatCount="indefinite" />
              <animate attributeName="y" values="-70;-90;-70" dur="3.5s" repeatCount="indefinite" />
            </rect>
            <rect x="-15" y="0" width="30" height="5" fill="#3a0ca3" opacity="0.9" rx="2" />
            <path d="M-15,-70 L-15,0 L15,0 L15,-70 Z" fill="none" stroke="#ffffff" stroke-width="1" stroke-opacity="0.5" />
          </g>
          
          <!-- Bar 4 -->
          <g transform="translate(120, 0)">
            <rect x="-15" y="-50" width="30" height="50" fill="#4361ee" opacity="0.7" rx="2">
              <animate attributeName="height" values="50;70;50" dur="4.5s" repeatCount="indefinite" />
              <animate attributeName="y" values="-50;-70;-50" dur="4.5s" repeatCount="indefinite" />
            </rect>
            <rect x="-15" y="0" width="30" height="5" fill="#4361ee" opacity="0.9" rx="2" />
            <path d="M-15,-50 L-15,0 L15,0 L15,-50 Z" fill="none" stroke="#ffffff" stroke-width="1" stroke-opacity="0.5" />
          </g>
        </g>
        
        <!-- Base grid -->
        <line x1="-30" y1="0" x2="150" y2="0" stroke="#ffffff" stroke-width="1" stroke-opacity="0.5" />
      </g>
      
      <!-- 3D Pie Chart -->
      <g transform="translate(100, -30) scale(0.8)">
        <!-- 3D effect base -->
        <ellipse cx="0" cy="10" rx="60" ry="20" fill="#4361ee" opacity="0.2" />
        
        <!-- Pie slices with 3D effect -->
        <g transform="rotate(-30)">
          <!-- Slice 1 -->
          <path d="M0,0 L0,-60 A60,60 0 0,1 52,30 z" fill="#4361ee" opacity="0.8" stroke="#ffffff" stroke-width="1" stroke-opacity="0.5">
            <animateTransform attributeName="transform" type="rotate" from="0 0 0" to="360 0 0" dur="30s" repeatCount="indefinite" />
          </path>
          
          <!-- Slice 2 -->
          <path d="M0,0 L52,30 A60,60 0 0,1 -52,30 z" fill="#4cc9f0" opacity="0.8" stroke="#ffffff" stroke-width="1" stroke-opacity="0.5">
            <animateTransform attributeName="transform" type="rotate" from="0 0 0" to="360 0 0" dur="30s" repeatCount="indefinite" />
          </path>
          
          <!-- Slice 3 -->
          <path d="M0,0 L-52,30 A60,60 0 0,1 0,-60 z" fill="#3a0ca3" opacity="0.8" stroke="#ffffff" stroke-width="1" stroke-opacity="0.5">
            <animateTransform attributeName="transform" type="rotate" from="0 0 0" to="360 0 0" dur="30s" repeatCount="indefinite" />
          </path>
        </g>
        
        <!-- Center dot -->
        <circle cx="0" cy="0" r="5" fill="#ffffff" opacity="0.8" />
      </g>
      
      <!-- 3D Line Chart -->
      <g transform="translate(0, 60) scale(0.9) skewY(-15)">
        <!-- 3D effect for depth -->
        <path d="M-150,0 L-100,-20 L-50,10 L0,-30 L50,5 L100,-15 L150,0 L150,20 L100,5 L50,25 L0,-10 L-50,30 L-100,0 L-150,20 Z" fill="#4361ee" opacity="0.1" />
        
        <!-- Grid lines -->
        <line x1="-150" y1="0" x2="150" y2="0" stroke="#ffffff" stroke-width="1" stroke-opacity="0.3" />
        <line x1="-150" y1="-25" x2="150" y2="-25" stroke="#ffffff" stroke-width="0.5" stroke-opacity="0.2" />
        <line x1="-150" y1="-50" x2="150" y2="-50" stroke="#ffffff" stroke-width="0.5" stroke-opacity="0.2" />
        <line x1="-150" y1="25" x2="150" y2="25" stroke="#ffffff" stroke-width="0.5" stroke-opacity="0.2" />
        
        <!-- Animated line chart -->
        <polyline points="-150,0 -100,-20 -50,10 0,-30 50,5 100,-15 150,0" stroke="#4cc9f0" stroke-width="3" fill="none" stroke-linecap="round" stroke-linejoin="round" filter="url(#glow)">
          <animate attributeName="points" 
                   values="-150,0 -100,-20 -50,10 0,-30 50,5 100,-15 150,0;
                          -150,5 -100,-15 -50,15 0,-25 50,10 100,-10 150,5;
                          -150,0 -100,-20 -50,10 0,-30 50,5 100,-15 150,0" 
                   dur="8s" repeatCount="indefinite" />
        </polyline>
        
        <!-- Data points with 3D effect -->
        <g>
          <circle cx="-150" cy="0" r="5" fill="#4cc9f0" opacity="0.8" stroke="#ffffff" stroke-width="1" stroke-opacity="0.5">
            <animate attributeName="cy" values="0;5;0" dur="8s" repeatCount="indefinite" />
          </circle>
          <circle cx="-100" cy="-20" r="5" fill="#4cc9f0" opacity="0.8" stroke="#ffffff" stroke-width="1" stroke-opacity="0.5">
            <animate attributeName="cy" values="-20;-15;-20" dur="8s" repeatCount="indefinite" />
          </circle>
          <circle cx="-50" cy="10" r="5" fill="#4cc9f0" opacity="0.8" stroke="#ffffff" stroke-width="1" stroke-opacity="0.5">
            <animate attributeName="cy" values="10;15;10" dur="8s" repeatCount="indefinite" />
          </circle>
          <circle cx="0" cy="-30" r="5" fill="#4cc9f0" opacity="0.8" stroke="#ffffff" stroke-width="1" stroke-opacity="0.5">
            <animate attributeName="cy" values="-30;-25;-30" dur="8s" repeatCount="indefinite" />
          </circle>
          <circle cx="50" cy="5" r="5" fill="#4cc9f0" opacity="0.8" stroke="#ffffff" stroke-width="1" stroke-opacity="0.5">
            <animate attributeName="cy" values="5;10;5" dur="8s" repeatCount="indefinite" />
          </circle>
          <circle cx="100" cy="-15" r="5" fill="#4cc9f0" opacity="0.8" stroke="#ffffff" stroke-width="1" stroke-opacity="0.5">
            <animate attributeName="cy" values="-15;-10;-15" dur="8s" repeatCount="indefinite" />
          </circle>
          <circle cx="150" cy="0" r="5" fill="#4cc9f0" opacity="0.8" stroke="#ffffff" stroke-width="1" stroke-opacity="0.5">
            <animate attributeName="cy" values="0;5;0" dur="8s" repeatCount="indefinite" />
          </circle>
        </g>
      </g>
    </g>
    
    <!-- 3D Floating Data Elements -->
    <g>
      <!-- 3D Data Cubes -->
      <g transform="translate(-150, -150) rotate(15)">
        <g transform="scale(0.8)">
          <!-- Cube faces -->
          <path d="M-20,-20 L20,-20 L20,20 L-20,20 Z" fill="#4361ee" opacity="0.7" />
          <path d="M20,-20 L40,0 L40,40 L20,20 Z" fill="#4361ee" opacity="0.5" />
          <path d="M-20,20 L20,20 L40,40 L0,40 Z" fill="#4361ee" opacity="0.3" />
          
          <!-- Cube edges -->
          <path d="M-20,-20 L20,-20 L20,20 L-20,20 Z M20,-20 L40,0 L40,40 L20,20 Z M-20,20 L20,20 L40,40 L0,40 Z M-20,-20 L0,-40 L40,0 L20,-20 Z M-20,-20 L-20,20 L0,40 L0,-40 Z" fill="none" stroke="#ffffff" stroke-width="1" stroke-opacity="0.8" />
          
          <!-- Data icon -->
          <text x="0" y="5" font-family="Arial" font-size="16" text-anchor="middle" fill="#ffffff" opacity="0.9">SQL</text>
        </g>
        <animateTransform attributeName="transform" type="translate" values="-150,-150; -140,-160; -150,-150" dur="10s" repeatCount="indefinite" additive="sum" />
      </g>
      
      <g transform="translate(150, -120) rotate(-10)">
        <g transform="scale(0.8)">
          <!-- Cube faces -->
          <path d="M-20,-20 L20,-20 L20,20 L-20,20 Z" fill="#4cc9f0" opacity="0.7" />
          <path d="M20,-20 L40,0 L40,40 L20,20 Z" fill="#4cc9f0" opacity="0.5" />
          <path d="M-20,20 L20,20 L40,40 L0,40 Z" fill="#4cc9f0" opacity="0.3" />
          
          <!-- Cube edges -->
          <path d="M-20,-20 L20,-20 L20,20 L-20,20 Z M20,-20 L40,0 L40,40 L20,20 Z M-20,20 L20,20 L40,40 L0,40 Z M-20,-20 L0,-40 L40,0 L20,-20 Z M-20,-20 L-20,20 L0,40 L0,-40 Z" fill="none" stroke="#ffffff" stroke-width="1" stroke-opacity="0.8" />
          
          <!-- Data icon -->
          <text x="0" y="5" font-family="Arial" font-size="16" text-anchor="middle" fill="#ffffff" opacity="0.9">BI</text>
        </g>
        <animateTransform attributeName="transform" type="translate" values="150,-120; 140,-130; 150,-120" dur="8s" repeatCount="indefinite" additive="sum" />
      </g>
      
      <g transform="translate(-100, 150) rotate(5)">
        <g transform="scale(0.8)">
          <!-- Cube faces -->
          <path d="M-20,-20 L20,-20 L20,20 L-20,20 Z" fill="#3a0ca3" opacity="0.7" />
          <path d="M20,-20 L40,0 L40,40 L20,20 Z" fill="#3a0ca3" opacity="0.5" />
          <path d="M-20,20 L20,20 L40,40 L0,40 Z" fill="#3a0ca3" opacity="0.3" />
          
          <!-- Cube edges -->
          <path d="M-20,-20 L20,-20 L20,20 L-20,20 Z M20,-20 L40,0 L40,40 L20,20 Z M-20,20 L20,20 L40,40 L0,40 Z M-20,-20 L0,-40 L40,0 L20,-20 Z M-20,-20 L-20,20 L0,40 L0,-40 Z" fill="none" stroke="#ffffff" stroke-width="1" stroke-opacity="0.8" />
          
          <!-- Data icon -->
          <text x="0" y="5" font-family="Arial" font-size="14" text-anchor="middle" fill="#ffffff" opacity="0.9">Excel</text>
        </g>
        <animateTransform attributeName="transform" type="translate" values="-100,150; -110,140; -100,150" dur="9s" repeatCount="indefinite" additive="sum" />
      </g>
      
      <g transform="translate(120, 130) rotate(-5)">
        <g transform="scale(0.8)">
          <!-- Cube faces -->
          <path d="M-20,-20 L20,-20 L20,20 L-20,20 Z" fill="#4361ee" opacity="0.7" />
          <path d="M20,-20 L40,0 L40,40 L20,20 Z" fill="#4361ee" opacity="0.5" />
          <path d="M-20,20 L20,20 L40,40 L0,40 Z" fill="#4361ee" opacity="0.3" />
          
          <!-- Cube edges -->
          <path d="M-20,-20 L20,-20 L20,20 L-20,20 Z M20,-20 L40,0 L40,40 L20,20 Z M-20,20 L20,20 L40,40 L0,40 Z M-20,-20 L0,-40 L40,0 L20,-20 Z M-20,-20 L-20,20 L0,40 L0,-40 Z" fill="none" stroke="#ffffff" stroke-width="1" stroke-opacity="0.8" />
          
          <!-- Data icon -->
          <text x="0" y="5" font-family="Arial" font-size="14" text-anchor="middle" fill="#ffffff" opacity="0.9">Data</text>
        </g>
        <animateTransform attributeName="transform" type="translate" values="120,130; 130,120; 120,130" dur="7s" repeatCount="indefinite" additive="sum" />
      </g>
    </g>
    
    <!-- 3D Data Flow Connections -->
    <g>
      <!-- Animated data flow lines with 3D effect -->
      <g transform="rotate(-10)">
        <path d="M-150,-150 C-100,-100 -50,-50 0,0" stroke="url(#dataFlowGradient)" stroke-width="3" fill="none" stroke-dasharray="5,5" opacity="0.7">
          <animate attributeName="stroke-dashoffset" values="0;20" dur="2s" repeatCount="indefinite" />
        </path>
        <path d="M150,-120 C100,-80 50,-40 0,0" stroke="url(#dataFlowGradient)" stroke-width="3" fill="none" stroke-dasharray="5,5" opacity="0.7">
          <animate attributeName="stroke-dashoffset" values="0;20" dur="2.5s" repeatCount="indefinite" />
        </path>
        <path d="M-100,150 C-70,100 -35,50 0,0" stroke="url(#dataFlowGradient)" stroke-width="3" fill="none" stroke-dasharray="5,5" opacity="0.7">
          <animate attributeName="stroke-dashoffset" values="0;20" dur="3s" repeatCount="indefinite" />
        </path>
        <path d="M120,130 C80,90 40,45 0,0" stroke="url(#dataFlowGradient)" stroke-width="3" fill="none" stroke-dasharray="5,5" opacity="0.7">
          <animate attributeName="stroke-dashoffset" values="0;20" dur="2.2s" repeatCount="indefinite" />
        </path>
      </g>
    </g>
    
    <!-- Holographic Particles -->
    <g>
      <circle cx="-80" cy="-60" r="3" fill="#ffffff" opacity="0.8" filter="url(#glow)">
        <animate attributeName="opacity" values="0.8;0.3;0.8" dur="3s" repeatCount="indefinite" />
        <animateTransform attributeName="transform" type="translate" values="0,0; 10,-10; 0,0" dur="5s" repeatCount="indefinite" />
      </circle>
      <circle cx="70" cy="-80" r="2" fill="#ffffff" opacity="0.8" filter="url(#glow)">
        <animate attributeName="opacity" values="0.8;0.3;0.8" dur="4s" repeatCount="indefinite" />
        <animateTransform attributeName="transform" type="translate" values="0,0; -10,-5; 0,0" dur="6s" repeatCount="indefinite" />
      </circle>
      <circle cx="-60" cy="90" r="2.5" fill="#ffffff" opacity="0.8" filter="url(#glow)">
        <animate attributeName="opacity" values="0.8;0.3;0.8" dur="3.5s" repeatCount="indefinite" />
        <animateTransform attributeName="transform" type="translate" values="0,0; -5,10; 0,0" dur="4.5s" repeatCount="indefinite" />
      </circle>
      <circle cx="90" cy="60" r="2" fill="#ffffff" opacity="0.8" filter="url(#glow)">
        <animate attributeName="opacity" values="0.8;0.3;0.8" dur="4.5s" repeatCount="indefinite" />
        <animateTransform attributeName="transform" type="translate" values="0,0; 10,5; 0,0" dur="5.5s" repeatCount="indefinite" />
      </circle>
      <circle cx="0" cy="-100" r="3" fill="#ffffff" opacity="0.8" filter="url(#glow)">
        <animate attributeName="opacity" values="0.8;0.3;0.8" dur="5s" repeatCount="indefinite" />
        <animateTransform attributeName="transform" type="translate" values="0,0; 0,-10; 0,0" dur="7s" repeatCount="indefinite" />
      </circle>
      <circle cx="0" cy="100" r="2.5" fill="#ffffff" opacity="0.8" filter="url(#glow)">
        <animate attributeName="opacity" values="0.8;0.3;0.8" dur="4s" repeatCount="indefinite" />
        <animateTransform attributeName="transform" type="translate" values="0,0; 0,10; 0,0" dur="6s" repeatCount="indefinite" />
      </circle>
    </g>
  </g>
</svg> 